<svg width="76" height="74" viewBox="0 0 76 74" fill="none" xmlns="http://www.w3.org/2000/svg">
    <path d="M6.85449 54.829L6.85655 68.3792C6.85655 70.9458 9.00468 73.0257 11.6546 73.0257H25.2103C26.6106 73.0257 27.9417 72.4328 28.8534 71.4032L67.3882 27.86C68.1333 27.0175 68.5431 25.9447 68.5431 24.8354V11.2851C68.5431 8.71863 66.395 6.63806 63.7451 6.63806H50.1873C48.787 6.63806 47.4559 7.2309 46.5443 8.26056L8.00944 51.8037C7.26369 52.6462 6.85449 53.719 6.85449 54.829Z" fill="darkblue"/>
    <path d="M6.85449 56.4588V68.3785C6.85449 70.9451 9.00263 73.0256 11.6525 73.0256H27.0767C27.3036 73.0256 27.5305 73.0097 27.7553 72.9792L71.278 66.9579C73.6421 66.6306 75.3974 64.6702 75.3974 62.3572V44.4739C75.3974 41.9067 73.2486 39.8262 70.5981 39.8268L48.7582 39.8322C48.2428 39.8322 47.7308 39.9125 47.2421 40.0705L10.135 52.0507C8.176 52.6833 6.85449 54.4592 6.85449 56.4594V56.4588Z" fill="teal"/>
    <path d="M0 4.64709V43.4058C0 45.2646 1.14398 46.9449 2.90759 47.6771L47.0746 66.0112C47.6716 66.2588 48.3152 66.3869 48.965 66.3869H70.5992C73.2491 66.3869 75.3972 64.3064 75.3972 61.7398V41.2402C75.3972 40.3221 75.1162 39.4245 74.5898 38.6604L49.3749 2.06928C48.4852 0.777391 46.9882 0.00199161 45.3843 0.00199161L4.79801 0C2.14814 0 0 2.08057 0 4.64709Z" fill="blue"/> <!-- oreo just fuck w the colors and it do worky thingys -->
    <path d="M61.2605 13.6923H14.1372V59.3333H61.2605V13.6923Z" fill="black"/>
    <path d="M20.0202 50.2051H38.8695V53.6282H20.0202V50.2051Z" fill="white"/>
    <text x="41%" y="45" text-anchor="middle" fill="white" font-size="20" font-family="Arial, sans-serif">AI</text>
    <defs>
        <linearGradient id="paint0_linear_259_571" x1="8.97864" y1="73.8442" x2="71.4254" y2="43.9516" gradientUnits="userSpaceOnUse">
            <stop offset="0.22" stop-color="#F0EB18"/>
            <stop offset="0.59" stop-color="#00C4F4"/>
        </linearGradient>
        <linearGradient id="paint1_linear_259_571" x1="70.7068" y1="68.2079" x2="3.75661" y2="-0.915939" gradientUnits="userSpaceOnUse">
            <stop offset="0.19" stop-color="#00C4F4"/>
            <stop offset="0.83" stop-color="#007DFE"/>
        </linearGradient>
    </defs>
</svg>